<?xml version="1.0" encoding="UTF-8"?>
<svg id="Layer_2" data-name="Layer 2" xmlns="http://www.w3.org/2000/svg" viewBox="0 0 1143.69 196.61">
  <g id="Layer_1-2" data-name="Layer 1">
    <g>
      <path d="m235.35,54.26c6.65,0,13.05-1.77,19.19-5.32,6.13-3.54,9.2-7.07,9.2-10.58,0-1.66-.93-2.96-2.78-3.88-1.85-.92-4.34-1.39-7.47-1.39-7.06,0-13.52,1.68-19.36,5.04-5.85,3.36-8.77,6.89-8.77,10.58s3.33,5.55,9.98,5.55Z"/>
      <path d="m649.63,84.9c6.42-5.64,9.64-9.66,9.64-12.06s-1.54-4.36-4.6-5.87c-3.07-1.51-6.98-2.26-11.72-2.26-19.22,0-42.48,8.26-69.8,24.77l7.29-5.82c10.07-8.01,15.11-13.46,15.11-16.36,0-1.85-1.39-2.77-4.17-2.77-12.39,0-21.18,1.76-26.39,5.27-2.78,1.85-6.37,4.81-10.76,8.87-2.08,1.97-8.45,7.7-19.1,17.19-8.04,7.17-14.48,12.96-19.32,17.39-20.32,5.76-43.05,14.56-68.19,26.43,26.74-25.02,52.9-47.3,78.48-66.83.11-.06.55-.28,1.3-.65.75-.37,1.42-.75,2-1.16.58-.4.87-.74.87-1.02s-.06-.48-.17-.6c-.12-.12-.46-.74-1.04-1.85-.58-1.11-1.21-1.86-1.91-2.26-.7-.4-2.49-.6-5.38-.6s-5.33.03-7.29.09c-6.71.18-12.33,1.66-16.84,4.44-2.2-2.4-7.24-3.61-15.11-3.61s-17.19,1.11-27.95,3.33-21.73,5.38-32.9,9.47c-11.17,4.1-21.56,8.72-31.17,13.87-9.61,5.15-17.48,10.99-23.61,17.52-3.32,3.53-5.73,7.04-7.25,10.54-.42.23-.83.47-1.26.7-3.71,2-7.93,3.88-12.67,5.64-4.75,1.76-8.86,2.63-12.33,2.63s-5.21-1.69-5.21-5.08c0-1.11.17-1.97.52-2.59,1.74-4.99,5.58-11.01,11.55-18.07,5.96-7.06,11.4-12.85,16.32-17.38,4.92-4.53,8.13-7.19,9.64-8,1.5-.8,2.26-2.06,2.26-3.79,0-3.2-4.4-4.81-13.2-4.81-3.82,0-6.68.29-8.59.88-1.91.59-4.25,1.99-7.03,4.21-1.04-1.66-3.53-3.05-7.47-4.16-3.94-1.11-9.03-1.66-15.28-1.66-16.21,0-33.92,4.01-53.13,12.02-9.15,3.82-17.54,8.06-25.18,12.71-7.64,4.65-13.8,9.8-18.49,15.44-2.81,3.38-4.75,6.74-5.88,10.1-.55.31-1.1.62-1.67.95-4.17,2.34-9.12,4.48-14.85,6.42s-11.26,2.91-16.58,2.91-7.99-1.05-7.99-3.14c0-1.66,1.16-3.73,3.47-6.19,1.16-1.17,2.17-2.17,3.04-3s2.08-1.88,3.65-3.14c1.56-1.26,2.52-2.08,2.87-2.45,27.55-25.27,41.32-38.61,41.32-40.03s-1.45-2.99-4.34-4.71c-2.89-1.72-6.16-2.59-9.81-2.59s-8.92,1.34-15.8,4.02c-6.89,2.68-12.73,5.39-17.54,8.13-4.8,2.74-7.21,4.44-7.21,5.08s1.19,1.65,3.56,3c2.37,1.36,3.56,2.26,3.56,2.73s-3.18,3.44-9.55,8.92c-6.01,5.18-12.02,10.81-18.03,16.87-30.69,14.85-54.62,26.11-71.73,33.79,10.88-11.96,30.79-30.94,59.73-56.94,9.84-8.81,15.22-13.7,16.15-14.65.93-.96,1.39-1.72,1.39-2.31s-.58-1.22-1.74-1.89c-.69-.37-1.36-.77-2-1.2-.64-.43-2.55-.83-5.73-1.2-3.19-.37-5.56-.55-7.12-.55s-2.98.31-4.25.92c-.81.31-1.56.62-2.26.92-.69.31-1.48.75-2.34,1.34-.87.59-1.62,1.1-2.26,1.53-.64.43-1.45,1.03-2.43,1.8-.98.77-1.8,1.39-2.43,1.85-.64.46-1.48,1.12-2.52,1.99-8.22,6.78-19.56,14.27-34.03,22.46-12.96,7.39-24.8,13.45-35.51,18.16-10.71,4.71-17.62,7.07-20.75,7.07-.93,0-1.39-.25-1.39-.74,0-2.03,7.58-10.38,22.75-25.05,15.16-14.67,22.75-22.96,22.75-24.87s-1.65-3.56-4.95-4.95-5.99-2.08-8.07-2.08-4.28.97-6.6,2.91c-2.32,1.94-5.67,5.16-10.07,9.66-4.4,4.5-8.68,8.44-12.85,11.83-4.4,4.25-9.17,8.66-14.32,13.22-5.15,4.56-8.77,7.8-10.85,9.71-5.9,5.49-8.86,11.15-8.86,17.01,0,3.94,2.2,6.7,6.6,8.27,4.4,1.57,8.85,2.36,13.37,2.36h1.21c8.8-.49,17.94-2.76,27.43-6.79,9.49-4.04,19.79-9.29,30.91-15.76-16.67,16.76-25.35,25.4-26.04,25.93-.69.52-4.8,2.74-12.33,6.66-7.53,3.91-13.78,7.56-18.75,10.95-13.08,9-19.62,16.85-19.62,23.57,0,5.73,5.32,8.6,15.97,8.6.93,0,3.04-.11,6.34-.32,3.3-.22,7.41-1.62,12.33-4.21,4.92-2.59,9.06-5.32,12.42-8.18,3.36-2.87,6.51-5.7,9.46-8.5,2.95-2.8,4.71-4.36,5.29-4.67,24.62-14.1,50.58-27.1,77.83-39.04,1.3,2.45,4.35,4.86,9.16,7.24,6.6,3.27,14.47,4.9,23.61,4.9s19.91-1.9,32.29-5.68c3.28-1,6.31-2.09,9.12-3.26,1.51,1.59,3.51,3.01,5.99,4.23,4.97,2.53,11.4,3.79,19.27,3.79s18.03-2.31,30.47-6.93c12.44-4.62,23.47-10.26,33.08-16.92-2.32,2.77-3.47,5.99-3.47,9.66s2.2,7.01,6.6,10.03c4.4,3.02,11.26,4.53,20.58,4.53s19.68-2.47,31.08-7.4c.04-.02.08-.03.12-.05,3.82,3.79,11.79,5.69,23.93,5.69,5.79,0,14.55-2.06,26.3-6.19,11.75-4.13,23.87-9.67,36.38-16.64-14.7,12.57-26.33,22.28-34.9,29.12-.69.43-4.92,2.31-12.67,5.64-7.76,3.33-16.26,7.61-25.52,12.85-12.39,7.03-18.58,13.9-18.58,20.61s6.54,9.89,19.62,9.89c6.6,0,11.29-1.33,14.06-3.98,7.52-6.84,19.97-15.84,37.33-26.99,13.43-8.5,30.56-16.61,51.39-24.31,5.6-2.07,10.98-4,16.19-5.84.11.67.51,1.18,1.25,1.5.87.37,3.36.97,7.47,1.8,4.11.83,7.41,1.25,9.9,1.25s5.53-1.32,9.12-3.97c12.38-8.87,23.87-16.41,34.47-22.6,10.59-6.19,23.44-13.2,38.54-21.03s24.57-11.83,28.39-12.02l.35.19c-8.57,5.36-12.85,10.17-12.85,14.42,0,1.91,1.01,3.57,3.04,4.99,2.02,1.42,4.86,2.13,8.51,2.13s6.92-.98,9.81-2.96c5.44-3.88,11.37-8.64,17.8-14.28Zm-349.08,17.61c-4.86,3.21-14.7,8.21-29.52,15.02-14.82,6.81-23.85,10.21-27.09,10.21-2.32,0-3.47-1.08-3.47-3.24s3.15-6.16,9.46-12.02c6.31-5.85,13.22-10.88,20.75-15.07,21.18-11.71,41.67-17.56,61.46-17.56-15.74,11.52-26.28,19.07-31.6,22.65Zm128.14,8.13c-7.64,3.7-14.58,6.89-20.83,9.57s-11.08,4.58-14.5,5.68c-3.42,1.11-5.62,1.66-6.6,1.66s-1.48-.52-1.48-1.57c0-4.38,5.21-10.54,15.63-18.49,5.56-4.25,12.15-8.4,19.79-12.43,7.64-4.04,17.36-7.83,29.17-11.37,11.81-3.54,24.42-6.08,37.85-7.63-21.65,14.36-41.32,25.88-59.03,34.57Z"/>
      <path d="m725.16,54.26c6.65,0,13.05-1.77,19.19-5.32,6.13-3.54,9.2-7.07,9.2-10.58,0-1.66-.93-2.96-2.78-3.88-1.85-.92-4.34-1.39-7.47-1.39-7.06,0-13.52,1.68-19.36,5.04-5.85,3.36-8.77,6.89-8.77,10.58s3.33,5.55,9.98,5.55Z"/>
      <path d="m820.57,109.82c-2.89-2.34-8.1-4.44-15.63-6.29-7.53-1.85-23.27-4.04-47.23-6.56-5.33-.55-7.99-1.28-7.99-2.17s1.97-2.29,5.9-4.21c3.93-1.91,8.88-3.91,14.84-6.01,5.96-2.09,13.11-3.99,21.44-5.68,8.33-1.69,16.32-2.63,23.96-2.82-.46.86-1.28,1.68-2.43,2.45-1.16.77-1.74,1.53-1.74,2.26s.43,1.2,1.3,1.39,1.59.48,2.17.88c.58.4,1.3.73,2.17.97.87.25,2.95.37,6.25.37s7.75-.74,13.37-2.22c5.61-1.48,9.72-3.14,12.33-4.99,2.6-1.85,3.91-4.41,3.91-7.67v-.65c0-1.29-.46-2.46-1.39-3.51-3.01-2.96-10.94-4.44-23.79-4.44s-29.23,2.13-48.44,6.38c-9.72,2.16-18.81,4.65-27.26,7.49-8.45,2.84-15.48,6.24-21.1,10.21-5.62,3.97-8.42,7.98-8.42,12.02s2.72,7.07,8.16,9.11c2.54.99,5.04,1.76,7.47,2.31s5.73,1.16,9.9,1.8c4.17.65,10.85,1.54,20.05,2.68,9.2,1.14,15.74,2.1,19.62,2.87,3.88.77,5.82,1.68,5.82,2.73,0,2.22-5.36,4.44-16.06,6.66-10.71,2.22-23.01,3.33-36.9,3.33-1.85,0-3.88-.55-6.08-1.66-2.2-1.11-3.3-2.43-3.3-3.98l.17-1.48c0-1.23-2.11-1.87-6.27-1.93,0-.13.02-.25.02-.38,0-5.55-1.5-8.32-4.51-8.32-1.51,0-7.7,3.11-18.58,9.34-4.17,2.34-9.12,4.48-14.85,6.42s-11.26,2.91-16.58,2.91-7.99-1.05-7.99-3.14c0-1.66,1.16-3.73,3.47-6.19,1.16-1.17,2.17-2.17,3.04-3s2.08-1.88,3.65-3.14c1.56-1.26,2.52-2.08,2.87-2.45,27.55-25.27,41.32-38.61,41.32-40.03s-1.45-2.99-4.34-4.71c-2.89-1.72-6.16-2.59-9.81-2.59s-8.92,1.34-15.8,4.02c-6.89,2.68-12.73,5.39-17.54,8.13-4.8,2.74-7.21,4.44-7.21,5.08s1.19,1.65,3.56,3c2.37,1.36,3.56,2.26,3.56,2.73s-3.18,3.44-9.55,8.92c-6.37,5.49-12.73,11.46-19.1,17.93-6.37,6.47-9.55,11.4-9.55,14.79s3.3,6.72,9.9,9.98c6.6,3.27,14.47,4.9,23.61,4.9s19.91-1.9,32.29-5.68c4.38-1.34,8.34-2.83,11.88-4.47.76,2.42,3.31,4.56,7.65,6.41,5.27,2.25,14.82,3.37,28.65,3.37s30.06-2.43,48.7-7.3c8.68-2.22,15.97-5.08,21.88-8.6,5.9-3.51,8.85-7.24,8.85-11.18,0-1.91-1.45-4.04-4.34-6.38Z"/>
      <path d="m1143,113.51c-.46-1.79-1.8-2.68-3.99-2.68-1.39,0-2.43.15-3.12.46-.7.31-2.81,1.51-6.34,3.61-3.53,2.1-7.15,4.15-10.85,6.15-3.71,2-7.93,3.88-12.67,5.64-4.75,1.76-8.86,2.63-12.33,2.63s-5.21-1.69-5.21-5.08c0-1.11.17-1.97.52-2.59,1.74-4.99,5.58-11.01,11.55-18.07,5.96-7.06,11.4-12.85,16.32-17.38,4.92-4.53,8.13-7.19,9.64-8,1.5-.8,2.26-2.06,2.26-3.79,0-3.2-4.4-4.81-13.2-4.81-3.82,0-6.68.29-8.59.88-1.91.59-4.25,1.99-7.03,4.21-1.04-1.66-3.53-3.05-7.47-4.16-3.94-1.11-9.03-1.66-15.28-1.66-16.21,0-33.92,4.01-53.13,12.02-9.15,3.82-17.54,8.06-25.18,12.71-7.64,4.65-13.8,9.8-18.49,15.44-2.71,3.26-4.61,6.5-5.75,9.74-1.12.56-2.29,1.15-3.54,1.77-12.27,6.1-21.36,9.15-27.26,9.15-4.05,0-6.08-1.31-6.08-3.93s11.29-15.76,33.86-39.42c7.52-7.89,11.29-12.45,11.29-13.68,0-3.39-2.14-5.53-6.42-6.42-4.28-.89-9.06-1.34-14.33-1.34s-13.17,2-23.7,6.01c-17.02,6.35-34.55,15.38-52.61,27.08,18.64-20.09,46.36-45.42,83.17-75.98l18.58-15.44c.69-.92,1.04-1.85,1.04-2.77s-.17-1.79-.52-2.59c-.35-.8-1.8-1.2-4.34-1.2-12.04,0-20.6,1.76-25.7,5.27-7.18,4.93-17.13,13.31-29.86,25.14-36.35,33.77-63.72,61.19-82.13,82.27-6.71,7.64-12.13,14.04-16.23,19.18-4.11,5.15-6.16,7.98-6.16,8.5s.75.79,2.26.79c.46,0,1.59.26,3.39.79,1.8.52,3.47.79,5.04.79s3.73-.34,6.51-1.02c2.78-.68,4.51-1.29,5.21-1.85,8.33-6.16,25.09-16.65,50.27-31.47,25.18-14.82,42.22-23.9,51.13-27.22-.35.37-.99.99-1.91,1.85-25.58,23.36-38.37,38.95-38.37,46.77,0,9,9.55,13.5,28.65,13.5,13.31,0,26.33-2.68,39.07-8.04.6-.26,1.2-.51,1.78-.77,1.54,1.69,3.6,3.18,6.21,4.47,4.97,2.53,11.4,3.79,19.27,3.79s18.03-2.31,30.47-6.93c12.44-4.62,23.47-10.26,33.08-16.92-2.32,2.77-3.47,5.99-3.47,9.66s2.2,7.01,6.6,10.03c4.4,3.02,11.26,4.53,20.58,4.53s19.68-2.47,31.08-7.4c11.4-4.93,18.78-9.15,22.14-12.66.69-.74,1.04-2.06,1.04-3.98s-.23-3.76-.69-5.55Zm-82.13-11c-4.86,3.21-14.7,8.21-29.52,15.02-14.82,6.81-23.85,10.21-27.09,10.21-2.32,0-3.47-1.08-3.47-3.24s3.15-6.16,9.46-12.02c6.31-5.85,13.22-10.88,20.75-15.07,21.18-11.71,41.67-17.56,61.46-17.56-15.74,11.52-26.28,19.07-31.6,22.65Z"/>
    </g>
  </g>
</svg>